<svg xmlns="http://www.w3.org/2000/svg" version="1.1" xmlns:xlink="http://www.w3.org/1999/xlink" xmlns:svgjs="http://svgjs.dev/svgjs" width="128" height="128" viewBox="0 0 128 128"><g transform="matrix(0.8046875,0,0,0.8046875,12.760752631578946,24.76166467285156)"><svg viewBox="0 0 95 72" data-background-color="#ffffff" preserveAspectRatio="xMidYMid meet" height="97" width="128" xmlns="http://www.w3.org/2000/svg" xmlns:xlink="http://www.w3.org/1999/xlink"><g id="tight-bounds" transform="matrix(1,0,0,1,-0.24049999999999727,0.19462500000000205)"><svg viewBox="0 0 95.481 71.61075" height="71.61075" width="95.481"><g><svg viewBox="0 0 95.481 71.61075" height="71.61075" width="95.481"><g><svg viewBox="0 0 95.481 71.61075" height="71.61075" width="95.481"><g id="textblocktransform"><svg viewBox="0 0 95.481 71.61075" height="71.61075" width="95.481" id="textblock"><g><svg viewBox="0 0 95.481 71.61075" height="71.61075" width="95.481"><g><svg viewBox="0 0 95.481 71.61075" height="71.61075" width="95.481"><g><svg xmlns="http://www.w3.org/2000/svg" xmlns:xlink="http://www.w3.org/1999/xlink" version="1.1" x="0" y="0" viewBox="0 0 24 18" enable-background="new 0 0 24 18" xml:space="preserve" height="71.61075" width="95.481" class="icon-icon-0" data-fill-palette-color="accent" id="icon-0"><g fill="#580480" data-fill-palette-color="accent"><circle cx="12" cy="10" r="4.0" fill="#580480" data-fill-palette-color="accent"></circle><path d="M22 2h-7V1c0-0.553-0.448-1-1-1h-4C9.448 0 9 0.448 9 1v1H2C0.896 2 0 2.896 0 4v12c0 1.104 0.896 2 2 2h20c1.104 0 2-0.896 2-2V4C24 2.896 23.104 2 22 2zM12 16c-3.313 0-6-2.687-6-6s2.687-6 6-6 6 2.687 6 6S15.313 16 12 16z" fill="#580480" data-fill-palette-color="accent"></path></g></svg></g></svg></g></svg></g></svg></g></svg></g></svg></g><defs></defs></svg><rect width="95.481" height="71.61075" fill="none" stroke="none" visibility="hidden"></rect></g></svg></g></svg>