<svg xmlns="http://www.w3.org/2000/svg" version="1.1" xmlns:xlink="http://www.w3.org/1999/xlink" xmlns:svgjs="http://svgjs.dev/svgjs" width="2000" height="348" viewBox="0 0 2000 348"><g transform="matrix(1,0,0,1,-1.2121212121212466,-0.9749550151556718)"><svg viewBox="0 0 396 69" data-background-color="#ffffff" preserveAspectRatio="xMidYMid meet" height="348" width="2000" xmlns="http://www.w3.org/2000/svg" xmlns:xlink="http://www.w3.org/1999/xlink"><g id="tight-bounds" transform="matrix(1,0,0,1,0.2400000000000091,0.1933100461084507)"><svg viewBox="0 0 395.52 68.61337990778308" height="68.61337990778308" width="395.52"><g><svg viewBox="0 0 494.8844841411404 85.85077144226163" height="68.61337990778308" width="395.52"><g transform="matrix(1,0,0,1,99.36448414114041,0)"><svg viewBox="0 0 395.52 85.85077144226163" height="85.85077144226163" width="395.52"><g id="textblocktransform"><svg viewBox="0 0 395.52 85.85077144226163" height="85.85077144226163" width="395.52" id="textblock"><g><svg viewBox="0 0 395.52 85.85077144226163" height="85.85077144226163" width="395.52"><g transform="matrix(1,0,0,1,0,0)"><svg width="395.52" viewBox="1.95 -35.6 208.69 45.3" height="85.85077144226163" data-palette-color="#ffffff"><path d="M20.9 0.6Q15.55 0.6 11.23-1.73 6.9-4.05 4.42-8.18 1.95-12.3 1.95-17.5L1.95-17.5Q1.95-22.7 4.42-26.83 6.9-30.95 11.23-33.27 15.55-35.6 20.95-35.6L20.95-35.6Q25.5-35.6 29.18-34 32.85-32.4 35.35-29.4L35.35-29.4 30.15-24.6Q26.6-28.7 21.35-28.7L21.35-28.7Q18.1-28.7 15.55-27.28 13-25.85 11.58-23.3 10.15-20.75 10.15-17.5L10.15-17.5Q10.15-14.25 11.58-11.7 13-9.15 15.55-7.73 18.1-6.3 21.35-6.3L21.35-6.3Q26.6-6.3 30.15-10.45L30.15-10.45 35.35-5.65Q32.85-2.6 29.15-1 25.45 0.6 20.9 0.6L20.9 0.6ZM58.8-26.9L66.6-26.9 66.6 0 59.15 0 59.15-3.1Q56.25 0.4 50.75 0.4L50.75 0.4Q46.95 0.4 43.87-1.3 40.8-3 39.05-6.15 37.3-9.3 37.3-13.45L37.3-13.45Q37.3-17.6 39.05-20.75 40.8-23.9 43.87-25.6 46.95-27.3 50.75-27.3L50.75-27.3Q55.9-27.3 58.8-24.05L58.8-24.05 58.8-26.9ZM52.1-6Q55.05-6 57-8.03 58.95-10.05 58.95-13.45L58.95-13.45Q58.95-16.85 57-18.88 55.05-20.9 52.1-20.9L52.1-20.9Q49.1-20.9 47.15-18.88 45.2-16.85 45.2-13.45L45.2-13.45Q45.2-10.05 47.15-8.03 49.1-6 52.1-6L52.1-6ZM89.69-27.3Q93.44-27.3 96.52-25.58 99.59-23.85 101.34-20.73 103.09-17.6 103.09-13.45L103.09-13.45Q103.09-9.3 101.34-6.18 99.59-3.05 96.52-1.33 93.44 0.4 89.69 0.4L89.69 0.4Q84.54 0.4 81.59-2.85L81.59-2.85 81.59 9.7 73.79 9.7 73.79-26.9 81.24-26.9 81.24-23.8Q84.14-27.3 89.69-27.3L89.69-27.3ZM88.34-6Q91.34-6 93.27-8.03 95.19-10.05 95.19-13.45L95.19-13.45Q95.19-16.85 93.27-18.88 91.34-20.9 88.34-20.9L88.34-20.9Q85.34-20.9 83.42-18.88 81.49-16.85 81.49-13.45L81.49-13.45Q81.49-10.05 83.42-8.03 85.34-6 88.34-6L88.34-6ZM122.44-6.8L124.49-1.3Q123.34-0.45 121.67-0.03 119.99 0.4 118.19 0.4L118.19 0.4Q113.34 0.4 110.74-2.05 108.14-4.5 108.14-9.25L108.14-9.25 108.14-32.85 115.94-32.85 115.94-26.3 122.59-26.3 122.59-20.3 115.94-20.3 115.94-9.35Q115.94-7.65 116.79-6.73 117.64-5.8 119.24-5.8L119.24-5.8Q121.04-5.8 122.44-6.8L122.44-6.8ZM148.19-26.9L155.99-26.9 155.99 0 148.59 0 148.59-3.2Q147.04-1.45 144.89-0.53 142.74 0.4 140.24 0.4L140.24 0.4Q134.94 0.4 131.84-2.65 128.74-5.7 128.74-11.7L128.74-11.7 128.74-26.9 136.54-26.9 136.54-12.85Q136.54-6.35 141.99-6.35L141.99-6.35Q144.79-6.35 146.49-8.18 148.19-10 148.19-13.6L148.19-13.6 148.19-26.9ZM170.69-23.35Q172.09-25.3 174.46-26.3 176.84-27.3 179.94-27.3L179.94-27.3 179.94-20.1Q178.64-20.2 178.19-20.2L178.19-20.2Q174.84-20.2 172.94-18.32 171.04-16.45 171.04-12.7L171.04-12.7 171.04 0 163.24 0 163.24-26.9 170.69-26.9 170.69-23.35ZM197.89-5.85Q199.99-5.85 201.61-6.48 203.24-7.1 204.64-8.45L204.64-8.45 208.79-3.95Q204.99 0.4 197.69 0.4L197.69 0.4Q193.14 0.4 189.64-1.38 186.14-3.15 184.24-6.3 182.34-9.45 182.34-13.45L182.34-13.45Q182.34-17.4 184.21-20.58 186.09-23.75 189.36-25.53 192.64-27.3 196.74-27.3L196.74-27.3Q200.59-27.3 203.74-25.68 206.89-24.05 208.76-20.98 210.64-17.9 210.64-13.7L210.64-13.7 190.74-9.85Q191.59-7.85 193.41-6.85 195.24-5.85 197.89-5.85L197.89-5.85ZM196.74-21.4Q193.79-21.4 191.94-19.5 190.09-17.6 189.99-14.25L189.99-14.25 203.09-16.8Q202.54-18.9 200.84-20.15 199.14-21.4 196.74-21.4L196.74-21.4Z" opacity="1" transform="matrix(1,0,0,1,0,0)" fill="#ffffff" class="wordmark-text-0" data-fill-palette-color="primary" id="text-0"></path></svg></g></svg></g></svg></g></svg></g><g transform="matrix(1,0,0,1,0,13.26394418782942)"><svg viewBox="0 0 79.09717742213705 59.32288306660279" height="59.32288306660279" width="79.09717742213705"><g><svg xmlns="http://www.w3.org/2000/svg" xmlns:xlink="http://www.w3.org/1999/xlink" version="1.1" x="0" y="0" viewBox="0 0 24 18" enable-background="new 0 0 24 18" xml:space="preserve" height="59.32288306660279" width="79.09717742213705" class="icon-icon-0" data-fill-palette-color="accent" id="icon-0"><g fill="#580480" data-fill-palette-color="accent"><circle cx="12" cy="10" r="4.0" fill="#580480" data-fill-palette-color="accent"></circle><path d="M22 2h-7V1c0-0.553-0.448-1-1-1h-4C9.448 0 9 0.448 9 1v1H2C0.896 2 0 2.896 0 4v12c0 1.104 0.896 2 2 2h20c1.104 0 2-0.896 2-2V4C24 2.896 23.104 2 22 2zM12 16c-3.313 0-6-2.687-6-6s2.687-6 6-6 6 2.687 6 6S15.313 16 12 16z" fill="#580480" data-fill-palette-color="accent"></path></g></svg></g></svg></g></svg></g><defs></defs></svg><rect width="395.52" height="68.61337990778308" fill="none" stroke="none" visibility="hidden"></rect></g></svg></g></svg>